<svg xmlns="http://www.w3.org/2000/svg" width="118" height="133" viewBox="0 0 118 133" fill="none"><path fill-rule="evenodd" clip-rule="evenodd" d="M109.774 133L118 8.286L50.1635 0L30 133H109.774Z" fill="#F4EFE9"></path><path fill-rule="evenodd" clip-rule="evenodd" d="M41.2074 83.5233C41.1203 83.5233 41.0336 83.5446 40.9552 83.5866C40.8253 83.6559 40.7289 83.7762 40.6884 83.919L40.6565 84.0314C40.5865 84.2793 40.6977 84.5429 40.9232 84.6639C41.003 84.7066 41.0898 84.7272 41.1754 84.7272C41.3314 84.7272 41.4847 84.6588 41.5901 84.5311L41.6696 84.4347C41.784 84.2959 41.8232 84.1089 41.7741 83.9353C41.7252 83.7616 41.5942 83.6235 41.4247 83.5668L41.3769 83.5508C41.3217 83.5324 41.2644 83.5233 41.2074 83.5233ZM34.4757 105C34.3025 105 34.1355 104.958 33.9797 104.875C33.7327 104.743 33.5418 104.492 33.4553 104.188L25.7706 77.0646C25.7203 76.8538 25.552 76.6834 25.3417 76.6433L0.823109 66.6065C0.219152 66.3595 0.0020015 65.8096 2.24916e-05 65.3777C-0.0017766 64.9457 0.210697 64.3942 0.812494 64.1417L6.15707 61.8991L86.593 29.0782C86.717 29.0251 86.8391 29 86.9642 29C87.1596 29 87.3469 29.0608 87.5055 29.1761C87.5133 29.1817 87.5212 29.187 87.5291 29.1923C87.8882 29.4249 88.0679 29.8642 87.9763 30.2855C87.9746 30.2937 77.0447 94.5266 77.0447 94.5266C76.9258 95.3436 76.4585 96.035 75.761 96.4372C75.3699 96.6628 74.9252 96.7821 74.475 96.7821H74.4749C74.1364 96.7821 73.8061 96.7162 73.4929 96.5867L51.8394 87.9768C51.7751 87.9515 51.7082 87.939 51.642 87.939C51.4993 87.939 51.3595 87.9963 51.2559 88.1034L35.2153 104.691C35.0236 104.886 34.7526 105 34.4757 105Z" fill="white"></path><mask id="mask0" maskUnits="userSpaceOnUse" x="0" y="28" width="89" height="78"><path fill-rule="evenodd" clip-rule="evenodd" d="M0 28.0383H88.8448V105.153H0V28.0383Z" fill="white"></path></mask><g mask="url(#mask0)"><path fill-rule="evenodd" clip-rule="evenodd" d="M41.6054 83.7821L41.6372 83.6696L41.6846 83.6856L41.6054 83.7821ZM87.2732 28.0383C87.0798 28.0383 86.8853 28.0771 86.7013 28.1562L6.47286 60.9889L1.14219 63.2319C-0.387854 63.8761 -0.378524 66.0774 1.15709 66.7079L25.6863 76.7785H25.7182V76.7945L33.3878 103.944C33.5097 104.375 33.7858 104.755 34.177 104.964C34.4155 105.092 34.6712 105.153 34.9231 105.153C35.339 105.153 35.7447 104.986 36.0458 104.68L52.0441 88.0867L73.6338 96.6965C74.014 96.8542 74.4161 96.9323 74.817 96.9323C75.3535 96.9323 75.8882 96.7922 76.3662 96.5156C77.2011 96.0329 77.7707 95.1873 77.9106 94.2229L88.8083 29.9873C88.9486 29.3408 88.6767 28.6741 88.1271 28.3169C87.8741 28.1328 87.5748 28.0383 87.2732 28.0383ZM41.6049 84.8738C41.916 84.8738 42.222 84.737 42.4321 84.4813L42.5116 84.3849C42.7395 84.1076 42.8177 83.7338 42.7201 83.3866C42.6227 83.0393 42.3621 82.7634 42.0242 82.6495L41.9767 82.6335C41.8662 82.5962 41.7513 82.5778 41.6372 82.5778C41.4637 82.5778 41.2911 82.6202 41.1348 82.7039C40.8753 82.8428 40.6828 83.0829 40.602 83.369L40.5703 83.4814C40.4303 83.9775 40.6519 84.5055 41.1014 84.747C41.2611 84.8325 41.4337 84.8738 41.6049 84.8738ZM87.2732 29.1301C87.3548 29.1301 87.4329 29.1554 87.4991 29.2038C87.5145 29.2149 87.5302 29.2258 87.5461 29.236C87.7153 29.3461 87.8 29.5537 87.7568 29.753C87.7534 29.7693 87.7501 29.7857 87.7473 29.8023L76.8494 94.0376C76.848 94.0464 76.8466 94.0551 76.8455 94.0639C76.7531 94.7007 76.3838 95.2488 75.8327 95.5674C75.5238 95.7461 75.1724 95.8405 74.817 95.8405C74.5496 95.8405 74.2887 95.7883 74.0411 95.6859C74.0366 95.6841 74.0323 95.682 74.0276 95.6804L52.438 87.0707C52.31 87.0197 52.1765 86.9948 52.0443 86.9948C51.7599 86.9948 51.4807 87.1092 51.2743 87.3234L35.28 103.912C35.1843 104.008 35.0578 104.061 34.9231 104.061C34.8387 104.061 34.7569 104.04 34.6796 103.999C34.5642 103.937 34.4682 103.804 34.423 103.644L26.776 76.5754C26.6976 76.152 26.3785 75.8152 25.9682 75.7164L1.56117 65.6959C1.12586 65.5172 1.07742 65.1289 1.0767 64.9702C1.07598 64.8117 1.1212 64.4229 1.55489 64.2404L6.8809 61.9991L87.1043 29.1687C87.1103 29.1663 87.1162 29.1638 87.1219 29.1612C87.1702 29.1405 87.2212 29.1301 87.2732 29.1301Z" fill="#08A1A8"></path></g><path fill-rule="evenodd" clip-rule="evenodd" d="M41.7282 85L48.2019 87.6826L51 88.8512L37 103L41.7282 85Z" fill="#08A1A8"></path><path fill-rule="evenodd" clip-rule="evenodd" d="M41.6395 84L41.5606 84.0965L36.3961 104.277C36.3223 104.546 36.1865 104.794 36 105L52 88.4024L51.5882 88.242L48.515 86.9242L41.6395 84ZM42.3204 85.4739L48.0958 87.9302L50.115 88.7959L38.346 101.004L42.3204 85.4739Z" fill="#08A1A8"></path><path fill-rule="evenodd" clip-rule="evenodd" d="M87 30L41.0482 83.7604L41.0005 83.7446L40.9688 83.856L35.7836 103.817C35.7095 104.083 35.5733 104.328 35.3859 104.532C34.9881 104.931 34.4083 105.09 33.8622 104.95C33.3161 104.809 32.8853 104.39 32.7298 103.848L25.016 76.9424V76.9266H25V76.9107L87 30Z" fill="#98CED3"></path><mask id="mask1" maskUnits="userSpaceOnUse" x="25" y="29" width="63" height="77"><path fill-rule="evenodd" clip-rule="evenodd" d="M25.043 29.075H87.8839V105.818H25.043V29.075Z" fill="white"></path></mask><g mask="url(#mask1)"><path fill-rule="evenodd" clip-rule="evenodd" d="M26.2062 77.1446L33.7994 103.963C33.9014 104.322 34.1866 104.603 34.5443 104.696C34.8979 104.788 35.2782 104.684 35.5388 104.425C35.6634 104.286 35.7555 104.116 35.8052 103.935L40.9683 83.8087L41.0033 83.6836C41.0437 83.5408 41.1399 83.421 41.2697 83.3516C41.276 83.3482 41.2824 83.3451 41.2889 83.3418L83.708 33.0899L26.2062 77.1446ZM34.8011 105.819C34.6258 105.819 34.4492 105.796 34.2756 105.751C33.5501 105.562 32.9711 104.992 32.7643 104.263L25.1002 77.1942C25.0636 77.1222 25.043 77.0414 25.043 76.9559C25.043 76.7852 25.1219 76.6087 25.2564 76.5055L87.0203 29.1854C87.2396 29.0176 87.5485 29.0435 87.7371 29.246C87.9258 29.4483 87.9335 29.762 87.7549 29.9735L41.9799 84.2008L36.8451 104.218C36.7466 104.577 36.5673 104.903 36.3243 105.171C36.3194 105.176 36.3146 105.181 36.3096 105.186C35.9071 105.595 35.3597 105.819 34.8011 105.819Z" fill="#08A1A8"></path></g><path fill-rule="evenodd" clip-rule="evenodd" d="M54.4526 89C54.3881 89 54.3221 88.9885 54.2581 88.9642L41.3523 84.0559C41.0701 83.9484 40.9284 83.6332 41.036 83.3516C41.1437 83.07 41.4592 82.9285 41.7419 83.036L54.6475 87.944C54.9299 88.0515 55.0716 88.367 54.964 88.6484C54.8807 88.8661 54.673 89 54.4526 89Z" fill="#08A1A8"></path></svg>