<svg xmlns="http://www.w3.org/2000/svg" width="121" height="133" viewBox="0 0 121 133" fill="none"><path opacity="0.529739" fill-rule="evenodd" clip-rule="evenodd" d="M47.8405 133L121 131.327L88.8098 7.61627L15 0L47.8405 133Z" fill="#E58361"></path><path fill-rule="evenodd" clip-rule="evenodd" d="M97.0414 89.4976C97.0414 81.857 90.8477 75.6628 83.2071 75.6628C75.5669 75.6628 69.3732 81.857 69.3732 89.4976C69.3732 97.1388 75.5669 103.333 83.2071 103.333H83.2097C90.849 103.331 97.0414 97.1379 97.0414 89.4976ZM103.325 84.2973C106.196 95.248 99.6463 106.454 88.6959 109.325C77.7459 112.196 66.5415 105.646 63.6705 94.6948C63.2254 92.9983 63.0004 91.2518 63 89.4976C63 89.3204 63.0022 89.1454 63.0071 88.9677C63.3009 77.65 72.7138 68.7133 84.0312 69.007C91.6816 69.2057 98.5838 73.6497 101.932 80.5319L103.325 84.2973Z" fill="white"></path><mask id="mask0" maskUnits="userSpaceOnUse" x="61" y="68" width="45" height="43"><path fill-rule="evenodd" clip-rule="evenodd" d="M61.124 68.0688H105.594V111H61.124V68.0688Z" fill="white"></path></mask><g mask="url(#mask0)"><path fill-rule="evenodd" clip-rule="evenodd" d="M83.0622 77.2494C76.0472 77.2494 70.3404 82.7586 70.3404 89.5298C70.3404 96.3014 76.0472 101.811 83.0622 101.811C90.0781 101.809 95.7845 96.3001 95.7845 89.5298C95.7845 82.7586 90.0772 77.2494 83.0622 77.2494ZM83.0649 104.443C74.5436 104.443 67.6131 97.7533 67.6131 89.5298C67.6131 81.3067 74.5436 74.6167 83.0622 74.6167C91.5813 74.6167 98.5117 81.3067 98.5117 89.5298C98.5117 97.7516 91.5822 104.442 83.0649 104.443ZM83.3458 70.7015C78.3277 70.7015 73.5813 72.5277 69.9277 75.876C66.149 79.3388 63.9931 84.0153 63.8581 89.0432C63.8536 89.2073 63.8513 89.3679 63.8513 89.5298C63.8513 91.1405 64.0658 92.7469 64.489 94.3037C65.8104 99.1693 69.0158 103.246 73.514 105.785C78.0122 108.323 83.264 109.018 88.3049 107.742C98.6881 105.115 104.929 94.8381 102.243 84.8143L100.872 81.2369C97.6631 74.923 91.1531 70.8906 83.8658 70.7081C83.6927 70.7037 83.5186 70.7015 83.3458 70.7015ZM83.3204 111C79.4272 111 75.5881 110.004 72.1377 108.058C67.0104 105.164 63.3572 100.517 61.8508 94.9715C61.3686 93.1966 61.124 91.3661 61.124 89.5302C61.124 89.3438 61.1268 89.1604 61.1318 88.9739C61.2858 83.2439 63.7431 77.9137 68.0504 73.9664C72.3572 70.0192 77.9918 67.9271 83.9368 68.0763C92.2672 68.2847 99.7077 72.9085 103.354 80.1426L103.406 80.262L104.864 84.085C107.974 95.5327 100.856 107.287 88.9967 110.289C87.1181 110.764 85.2127 111 83.3204 111Z" fill="#08A1A8"></path></g><path fill-rule="evenodd" clip-rule="evenodd" d="M90.9916 49.1993L103 80.7728C98.0387 70.8435 85.7495 66.7101 75.5513 71.541C68.6581 74.8062 64.2062 81.5382 64.0072 89H64L64.0689 78.519L64.1207 70.3981L64.2299 53.6945L64.2321 53.2426C64.2321 50.6888 65.0022 48.1913 66.4471 46.0603C66.9793 45.2731 67.5951 44.5425 68.2829 43.8806C73.6606 38.6813 82.3484 38.71 87.6885 43.946C89.1947 45.4225 90.3262 47.2216 90.9916 49.1993Z" fill="white"></path><path fill-rule="evenodd" clip-rule="evenodd" d="M76.074 39.6822C72.9636 39.6822 69.8524 40.878 67.4763 43.2722C66.8624 43.8875 66.3123 44.5681 65.8394 45.2966C64.5537 47.2731 63.8745 49.5681 63.8745 51.935L63.7093 78.553C65.816 74.7064 69.0617 71.5292 73.1293 69.5213C78.3081 66.9652 84.1577 66.6079 89.6009 68.5161C92.1828 69.4207 94.5267 70.7842 96.5462 72.5277L87.6687 48.2001C87.0799 46.377 86.0644 44.6942 84.7316 43.3326C82.3506 40.8999 79.2125 39.6822 76.074 39.6822ZM63.6189 90H61L61.0013 88.65L61.2301 51.9279C61.2301 49.0409 62.0604 46.2348 63.6317 43.8196C64.2047 42.9364 64.8724 42.1104 65.6151 41.3659C71.4215 35.5154 80.8398 35.5489 86.6078 41.4419C88.2231 43.092 89.4559 45.1316 90.1735 47.3402L102 79.743L99.571 80.7957C97.3607 76.1861 93.513 72.7258 88.7375 71.052C83.9616 69.3778 78.8295 69.6912 74.2863 71.9343C67.9113 75.0807 63.8366 81.5027 63.6524 88.6933L63.6189 90Z" fill="#08A1A8"></path><path fill-rule="evenodd" clip-rule="evenodd" d="M83.4998 76.7362C76.4618 76.7362 70.7362 82.4622 70.7362 89.4998C70.7362 96.5378 76.4618 102.264 83.4998 102.264C90.5378 102.264 96.2638 96.5378 96.2638 89.4998C96.2638 82.4622 90.5378 76.7362 83.4998 76.7362ZM83.4998 105C74.9532 105 68 98.0468 68 89.4998C68 80.9532 74.9532 74 83.4998 74C92.0468 74 99 80.9532 99 89.4998C99 98.0468 92.0468 105 83.4998 105Z" fill="#08A1A8"></path><mask id="mask1" maskUnits="userSpaceOnUse" x="65" y="30" width="20" height="15"><path fill-rule="evenodd" clip-rule="evenodd" d="M65.2012 30.2188H84.7561V44.6757H65.2012V30.2188Z" fill="white"></path></mask><g mask="url(#mask1)"><path fill-rule="evenodd" clip-rule="evenodd" d="M84.1551 36.4775L84.7561 40.5226C79.15 37.2579 71.9151 38.0618 67.2561 42.4674C66.5402 43.1379 65.8998 43.8782 65.3468 44.6759L65.3216 44.6591L65.2012 39.3213C65.2621 36.9001 66.3105 34.5954 68.1258 32.8925C71.9268 29.3106 78.07 29.33 81.8463 32.9362C82.8914 33.9337 83.6807 35.1451 84.1551 36.4775Z" fill="#08A1A8"></path></g><path fill-rule="evenodd" clip-rule="evenodd" d="M64 52.0023L63.8943 70H63.7773H43.1096H43.1079L43 52H43.1096H63.7773L64 52.0023Z" fill="white"></path><path fill-rule="evenodd" clip-rule="evenodd" d="M43.7509 68.2953H62.2513L62.3419 53.7047H43.6585L43.7509 68.2953ZM64.8759 71H41.129L41.1184 69.6567L41 51L65 51.0162L64.8759 71Z" fill="#08A1A8"></path><path fill-rule="evenodd" clip-rule="evenodd" d="M64 70L63.9492 78H63.8818H43.0508L43 70H43.0022H63.8818H64Z" fill="#08A1A8"></path><path fill-rule="evenodd" clip-rule="evenodd" d="M41.9338 78.8767L42 89H41.9767C41.4276 77.872 31.7995 69.2881 20.4717 69.8267C12.9795 70.1835 6.28164 74.5244 3 81.1502L15.0081 49.2942C17.3582 42.222 25.0994 38.36 32.2986 40.6686C34.3397 41.3232 36.1956 42.4395 37.7171 43.9275C38.4138 44.6036 39.0354 45.35 39.5721 46.1548C41.005 48.2992 41.7683 50.8081 41.7679 53.3733L41.7706 53.8271L41.8819 70.683L41.9338 78.8767Z" fill="white"></path><path fill-rule="evenodd" clip-rule="evenodd" d="M21.447 68.0117C29.4764 68.0117 36.5835 72.4826 40.2859 79.1618L40.1185 52.7995C40.1189 50.4612 39.4456 48.1994 38.1716 46.2508C37.6944 45.5195 37.1387 44.8381 36.52 44.224C35.1702 42.875 33.5045 41.8512 31.6991 41.2596C28.6043 40.2451 25.3011 40.5017 22.398 41.9817C19.4949 43.4617 17.3396 45.9885 16.3291 49.0962L16.3124 49.1453L7.44487 73.1883C11.0138 70.1319 15.5434 68.2732 20.3921 68.0374C20.745 68.0206 21.0976 68.0117 21.447 68.0117ZM43 90H40.4098L40.3256 88.7368C39.8206 78.2791 30.9337 70.1815 20.5199 70.689C13.6177 71.0248 7.45192 75.109 4.42851 81.3479L2 80.3064L13.8239 48.2472C16.3719 40.457 24.7533 36.1918 32.5196 38.7359C34.7168 39.4557 36.7439 40.7017 38.3818 42.3392C39.1296 43.0807 39.8043 43.9085 40.3824 44.7952C41.9393 47.1764 42.7629 49.9426 42.7625 52.7929L43 90Z" fill="#08A1A8"></path><path fill-rule="evenodd" clip-rule="evenodd" d="M35.3348 89.5093C35.3348 81.8656 29.1397 75.669 21.4975 75.669C13.8553 75.669 7.66076 81.8656 7.66076 89.5093C7.66076 97.1535 13.8553 103.35 21.4975 103.35H21.5002C29.1411 103.348 35.3348 97.1526 35.3348 89.5093ZM41.9768 88.5205C41.9933 88.847 42 89.1784 42 89.5093C41.992 100.834 32.8075 110.008 21.4855 110C10.164 109.992 0.991973 100.805 1.00001 89.4807C1.0009 87.7348 1.2255 85.9961 1.66711 84.3069L3.06026 80.5405C8.01441 70.3554 20.2848 66.1164 30.4673 71.0714C37.2021 74.3488 41.6142 81.038 41.9768 88.5205Z" fill="white"></path><path fill-rule="evenodd" clip-rule="evenodd" d="M21.9975 77.1981C15.0558 77.1981 9.4085 82.7195 9.4085 89.5057C9.4085 96.2923 15.0558 101.814 21.9975 101.814C28.9402 101.812 34.587 96.291 34.587 89.5057C34.587 82.7195 28.9393 77.1981 21.9975 77.1981ZM22.0002 104.452C13.5678 104.452 6.70969 97.7474 6.70969 89.5057C6.70969 81.2644 13.5678 74.5596 21.9975 74.5596C30.4277 74.5596 37.2858 81.2644 37.2858 89.5057C37.2858 97.7456 30.4286 104.45 22.0002 104.452ZM3.3101 84.7793C2.90528 86.314 2.69972 87.8949 2.69882 89.4784C2.69522 94.5188 4.69953 99.2588 8.34247 102.825C11.9854 106.392 16.8311 108.358 21.9863 108.362H21.9998C32.6371 108.362 41.2935 99.9057 41.3012 89.5048C41.3012 89.2023 41.2949 88.8984 41.2791 88.5994V88.5959C40.9377 81.7081 36.7856 75.5556 30.4425 72.5385C20.8906 67.9955 9.34283 71.8794 4.6667 81.1949L3.3101 84.7793ZM21.9998 111H21.9845C16.1083 110.996 10.5852 108.755 6.43262 104.69C2.2805 100.624 -0.00448477 95.2215 1.32367e-05 89.4767C0.000912839 87.6473 0.242006 85.8215 0.715647 84.0502L0.755679 83.9258L2.21123 80.0982C7.51889 69.4322 20.7133 64.9771 31.6233 70.1661C38.852 73.6041 43.5844 80.6158 43.9744 88.4657C43.9923 88.8091 44 89.1574 44 89.5057C43.9914 101.361 34.1237 111 21.9998 111Z" fill="#08A1A8"></path><path fill-rule="evenodd" clip-rule="evenodd" d="M40 39.869L39.883 44.9979L39.878 45C37.3034 41.2614 32.9266 39.001 28.2271 38.9834C25.6837 38.9855 23.1909 39.6542 21.0212 40.9163L21 40.8798L21.5839 37.0986C23.2492 32.4085 28.5986 29.8898 33.5308 31.4734C34.8956 31.9117 36.1366 32.6418 37.1583 33.6066C38.9226 35.2658 39.9412 37.5107 40 39.869Z" fill="#08A1A8"></path><path fill-rule="evenodd" clip-rule="evenodd" d="M21.5 76.7362C14.4619 76.7362 8.73626 82.4622 8.73626 89.4998C8.73626 96.5378 14.4619 102.264 21.5 102.264C28.5381 102.264 34.2637 96.5378 34.2637 89.4998C34.2637 82.4622 28.5381 76.7362 21.5 76.7362ZM21.5 105C12.9533 105 6 98.0468 6 89.4998C6 80.9532 12.9533 74 21.5 74C30.0467 74 37 80.9532 37 89.4998C37 98.0468 30.0467 105 21.5 105Z" fill="#08A1A8"></path><path fill-rule="evenodd" clip-rule="evenodd" d="M83.9998 76C91.732 76 98 82.0441 98 89.4998C98 96.9559 91.732 103 83.9998 103C76.268 103 70 96.9559 70 89.4998C70 82.0441 76.268 76 83.9998 76Z" fill="#A8D4D9"></path><path fill-rule="evenodd" clip-rule="evenodd" d="M21 76C28.7323 76 35 82.0441 35 89.4998C35 96.9559 28.7323 103 21 103C13.2677 103 7 96.9559 7 89.4998C7 82.0441 13.2681 76 21 76Z" fill="#A8D4D9"></path></svg>