<svg xmlns="http://www.w3.org/2000/svg" width="101" height="122" viewBox="0 0 101 122" fill="none"><path opacity="0.431176" fill-rule="evenodd" clip-rule="evenodd" d="M46.1661 0L25 122H101V0H46.1661Z" fill="#08A1A8"></path><path fill-rule="evenodd" clip-rule="evenodd" d="M6.87635 24H65.1239C68.9075 24 72 27.0939 72 30.8794V95.1148C72 98.9001 68.9077 102 65.1239 102H6.87635C3.0925 102 0 98.9001 0 95.1148V30.8794C0 27.0939 3.0925 24 6.87635 24Z" fill="white"></path><path fill-rule="evenodd" clip-rule="evenodd" d="M7.489 25.2794C4.06455 25.2794 1.2785 28.0675 1.2785 31.4945V95.4998C1.2785 98.9299 4.06455 101.721 7.489 101.721H65.5112C68.9357 101.721 71.7215 98.9299 71.7215 95.4998V31.4945C71.7215 28.0675 68.9357 25.2794 65.5112 25.2794H7.489ZM65.5112 103H7.489C3.35967 103 0 99.6355 0 95.4998V31.4945C0 27.3621 3.35967 24 7.489 24H65.5112C69.6405 24 73 27.3621 73 31.4945V95.4998C73 99.6355 69.6405 103 65.5112 103Z" fill="#08A1A8"></path><path fill-rule="evenodd" clip-rule="evenodd" d="M59 24H65.1781C68.932 24 72 27.0939 72 30.8794V95.1148C72 98.9001 68.9322 102 65.1781 102H59C62.7537 102 65.8219 98.9001 65.8219 95.1148V30.8794C65.8219 27.0939 62.7537 24 59 24Z" fill="#08A1A8"></path><path fill-rule="evenodd" clip-rule="evenodd" d="M17.5099 18.9978H21.068C22.2222 18.9978 22.2222 18.5509 22.4542 17.5404C23.0612 14.9367 25.233 13 27.8033 13H41.1908C43.7672 13 45.9449 14.9498 46.54 17.5601C46.7243 18.3566 47.0635 18.9978 47.9264 18.9978H51.4844C54.519 18.9978 57 21.6991 57 25.0022C57 28.2992 54.519 31 51.4844 31H17.5097C14.4752 31 12 28.2992 12 25.0022C12.0002 21.6991 14.4754 18.9978 17.5099 18.9978Z" fill="#98CED3"></path><path fill-rule="evenodd" clip-rule="evenodd" d="M17.2379 18.8472C14.5041 18.8472 12.2798 21.0643 12.2796 23.7897C12.2796 26.5115 14.5039 28.7261 17.2377 28.7261H51.7563C54.4935 28.7261 56.7204 26.5115 56.7204 23.7897C56.7204 21.0643 54.4935 18.8472 51.7563 18.8472H48.1413C47.1 18.8472 46.4173 18.2358 46.1123 17.03C45.5608 14.8175 43.5813 13.2739 41.2979 13.2739H27.6961C25.4225 13.2739 23.4426 14.8114 22.8815 17.0128L22.8314 17.2177C22.6006 18.1718 22.3236 18.8472 20.8529 18.8472H17.2379ZM51.7563 30H17.2377C13.7982 30 11 27.2141 11 23.7897C11.0002 20.362 13.7986 17.5733 17.2379 17.5733H20.8529C21.4292 17.5733 21.4292 17.5733 21.5874 16.9193L21.6407 16.7017C22.3466 13.9326 24.8365 12 27.6961 12H41.2979C44.1706 12 46.6608 13.9413 47.3537 16.7208C47.5529 17.509 47.8282 17.5733 48.1413 17.5733H51.7563C55.199 17.5733 58 20.362 58 23.7897C58 27.2141 55.199 30 51.7563 30Z" fill="#08A1A8"></path><path fill-rule="evenodd" clip-rule="evenodd" d="M35 13H41.4118C44.1151 13 46.4001 14.9498 47.0245 17.5601C47.2181 18.3566 47.5738 18.9978 48.4792 18.9978H52.2126C55.3967 18.9978 58 21.6991 58 25.0022C58 28.2992 55.3967 31 52.2126 31H45.8008C48.9849 31 51.5882 28.2992 51.5882 25.0022C51.5882 21.6991 48.9849 18.9978 45.8008 18.9978H42.0675C41.1559 18.9978 40.8061 18.3566 40.6127 17.5601C39.9883 14.9498 37.7033 13 35 13Z" fill="#08A1A8"></path><mask id="mask0" maskUnits="userSpaceOnUse" x="0" y="12" width="73" height="91"><path fill-rule="evenodd" clip-rule="evenodd" d="M0 103H73V12H0V103Z" fill="white"></path></mask><g mask="url(#mask0)"><path fill-rule="evenodd" clip-rule="evenodd" d="M11 53H20V44H11V53Z" fill="#98CED3"></path><path fill-rule="evenodd" clip-rule="evenodd" d="M11.3384 52.6616H19.6616V44.3384H11.3384V52.6616ZM10 54H21V43H10V54Z" fill="#08A1A8"></path><path fill-rule="evenodd" clip-rule="evenodd" d="M11 71H20V62H11V71Z" fill="#98CED3"></path><path fill-rule="evenodd" clip-rule="evenodd" d="M11.3384 70.6616H19.6616V62.3384H11.3384V70.6616ZM10 72H21V61H10V72Z" fill="#08A1A8"></path><path fill-rule="evenodd" clip-rule="evenodd" d="M11 89H20V80H11V89Z" fill="#98CED3"></path><path fill-rule="evenodd" clip-rule="evenodd" d="M11.3384 88.6616H19.6616V80.3384H11.3384V88.6616ZM10 90H21V79H10V90Z" fill="#08A1A8"></path><path fill-rule="evenodd" clip-rule="evenodd" d="M56.3641 44H27.6359C27.2847 44 27 43.7762 27 43.5C27 43.2238 27.2847 43 27.6359 43H56.3641C56.7153 43 57 43.2238 57 43.5C57 43.7762 56.7153 44 56.3641 44Z" fill="#08A1A8"></path><path fill-rule="evenodd" clip-rule="evenodd" d="M49.3501 48H27.6499C27.2909 48 27 47.7762 27 47.5C27 47.2238 27.2909 47 27.6499 47H49.3501C49.7091 47 50 47.2238 50 47.5C50 47.7762 49.7091 48 49.3501 48Z" fill="#08A1A8"></path><path fill-rule="evenodd" clip-rule="evenodd" d="M56.3641 62H27.6359C27.2847 62 27 61.7762 27 61.5C27 61.2238 27.2847 61 27.6359 61H56.3641C56.7153 61 57 61.2238 57 61.5C57 61.7762 56.7153 62 56.3641 62Z" fill="#08A1A8"></path><path fill-rule="evenodd" clip-rule="evenodd" d="M49.3501 68H27.6499C27.2909 68 27 67.7762 27 67.5C27 67.2238 27.2909 67 27.6499 67H49.3501C49.7091 67 50 67.2238 50 67.5C50 67.7762 49.7091 68 49.3501 68Z" fill="#08A1A8"></path><path fill-rule="evenodd" clip-rule="evenodd" d="M56.3641 80H27.6359C27.2847 80 27 79.7762 27 79.5C27 79.2238 27.2847 79 27.6359 79H56.3641C56.7153 79 57 79.2238 57 79.5C57 79.7762 56.7153 80 56.3641 80Z" fill="#08A1A8"></path><path fill-rule="evenodd" clip-rule="evenodd" d="M49.3501 84H27.6499C27.2909 84 27 83.7762 27 83.5C27 83.2238 27.2909 83 27.6499 83H49.3501C49.7091 83 50 83.2238 50 83.5C50 83.7762 49.7091 84 49.3501 84Z" fill="#08A1A8"></path></g></svg>