<svg xmlns="http://www.w3.org/2000/svg" width="126" height="139" viewBox="0 0 126 139" fill="none"><path opacity="0.461937" fill-rule="evenodd" clip-rule="evenodd" d="M33.4479 0L0 132.024L79.767 139L126 0H33.4479Z" fill="#F9BF73"></path><path fill-rule="evenodd" clip-rule="evenodd" d="M55.4996 43C79.4296 43 99.3199 57.7213 108.623 67.1509C110.459 69.0119 110.459 71.9886 108.623 73.8491C99.3199 83.2792 79.4296 98 55.4996 98C31.57 98 11.6797 83.2792 2.37676 73.8491C0.541081 71.9886 0.541081 69.0119 2.37676 67.1509C11.6797 57.7213 31.57 43 55.4996 43Z" fill="white"></path><mask id="mask0" maskUnits="userSpaceOnUse" x="0" y="41" width="112" height="58"><path fill-rule="evenodd" clip-rule="evenodd" d="M0 41.1086H111.78V98.9998H0V41.1086Z" fill="white"></path></mask><g mask="url(#mask0)"><path fill-rule="evenodd" clip-rule="evenodd" d="M55.8902 43.7445C34.6633 43.7445 14.9729 56.0748 3.62309 67.6137C2.29929 68.9591 2.29929 71.1486 3.62309 72.4941C14.9729 84.033 34.6638 96.3633 55.8902 96.3633C77.1175 96.3633 96.808 84.0334 108.157 72.4941C109.481 71.1486 109.481 68.9591 108.157 67.6137C96.808 56.0748 77.1175 43.7445 55.8902 43.7445ZM55.8902 98.9996C28.1524 98.9996 7.43373 80.1272 1.74456 74.343C-0.581522 71.9778 -0.581522 68.13 1.74456 65.7647C7.43373 59.9806 28.1524 41.1082 55.8902 41.1082C83.6293 41.1082 104.347 59.9806 110.036 65.7647C112.362 68.13 112.362 71.9778 110.036 74.343C104.347 80.1272 83.6289 98.9996 55.8902 98.9996Z" fill="#08A1A8"></path></g><path fill-rule="evenodd" clip-rule="evenodd" d="M56 43C71.464 43 84 55.3121 84 70.5C84 85.6879 71.464 98 56 98C40.536 98 28 85.6879 28 70.5C28 55.3121 40.536 43 56 43Z" fill="#98CED3"></path><path fill-rule="evenodd" clip-rule="evenodd" d="M56.5 56C63.9558 56 70 62.0443 70 69.4998C70 76.9557 63.9558 83 56.5 83C49.0442 83 43 76.9557 43 69.4998C43 62.0443 49.0442 56 56.5 56Z" fill="#08A1A8"></path><path fill-rule="evenodd" clip-rule="evenodd" d="M69 58C72.3136 58 75 60.6865 75 63.9998C75 67.3135 72.3136 70 69 70C65.6864 70 63 67.3135 63 63.9998C63 60.6865 65.6864 58 69 58Z" fill="white"></path></svg>